<?xml version="1.0" encoding="UTF-8" standalone="no"?>
<!DOCTYPE svg PUBLIC "-//W3C//DTD SVG 1.1//EN"
 "http://www.w3.org/Graphics/SVG/1.1/DTD/svg11.dtd">
<!-- Generated by graphviz version 2.40.1 (20161225.0304)
 -->
<!-- Title: accum_stats Pages: 1 -->
<svg width="342pt" height="255pt"
 viewBox="0.00 0.00 342.00 255.00" xmlns="http://www.w3.org/2000/svg" xmlns:xlink="http://www.w3.org/1999/xlink">
<g id="graph0" class="graph" transform="scale(1 1) rotate(0) translate(4 251)">
<title>accum_stats</title>
<polygon fill="#ffffff" stroke="transparent" points="-4,4 -4,-251 338,-251 338,4 -4,4"/>
<!-- accum_stats -->
<g id="node1" class="node">
<title>accum_stats</title>
<polygon fill="#efefef" stroke="transparent" points="46,-165.5 46,-200.5 288,-200.5 288,-165.5 46,-165.5"/>
<polygon fill="none" stroke="#000000" points="46,-165.5 46,-200.5 288,-200.5 288,-165.5 46,-165.5"/>
<text text-anchor="start" x="52.7053" y="-178.3" font-family="Arial Bold" font-size="18.00" fill="#000000">accum_stats</text>
<text text-anchor="start" x="153.7267" y="-178.3" font-family="Arial" font-size="14.00" fill="#000000">    </text>
<text text-anchor="start" x="187.9315" y="-178.3" font-family="Arial" font-size="14.00" fill="#666666">[BASE TABLE]</text>
<polygon fill="none" stroke="#000000" points="46,-135.5 46,-165.5 288,-165.5 288,-135.5 46,-135.5"/>
<text text-anchor="start" x="53" y="-146.9" font-family="Arial" font-size="14.00" fill="#000000">id </text>
<text text-anchor="start" x="67.7798" y="-146.9" font-family="Arial" font-size="14.00" fill="#666666">[int unsigned]</text>
<polygon fill="none" stroke="#000000" points="46,-105.5 46,-135.5 288,-135.5 288,-105.5 46,-105.5"/>
<text text-anchor="start" x="53" y="-116.9" font-family="Arial" font-size="14.00" fill="#000000">registered_user </text>
<text text-anchor="start" x="154.1304" y="-116.9" font-family="Arial" font-size="14.00" fill="#666666">[bigint]</text>
<polygon fill="none" stroke="#000000" points="46,-75.5 46,-105.5 288,-105.5 288,-75.5 46,-75.5"/>
<text text-anchor="start" x="53" y="-86.9" font-family="Arial" font-size="14.00" fill="#000000">created_at </text>
<text text-anchor="start" x="123.028" y="-86.9" font-family="Arial" font-size="14.00" fill="#666666">[timestamp]</text>
<polygon fill="none" stroke="#000000" points="46,-45.5 46,-75.5 288,-75.5 288,-45.5 46,-45.5"/>
<text text-anchor="start" x="53" y="-56.9" font-family="Arial" font-size="14.00" fill="#000000">updated_at </text>
<text text-anchor="start" x="126.9326" y="-56.9" font-family="Arial" font-size="14.00" fill="#666666">[timestamp]</text>
<polygon fill="none" stroke="#000000" stroke-width="3" points="44.5,-44.5 44.5,-202.5 289.5,-202.5 289.5,-44.5 44.5,-44.5"/>
</g>
</g>
</svg>
