<?xml version="1.0" encoding="UTF-8" standalone="no"?>
<!DOCTYPE svg PUBLIC "-//W3C//DTD SVG 1.1//EN"
 "http://www.w3.org/Graphics/SVG/1.1/DTD/svg11.dtd">
<!-- Generated by graphviz version 2.40.1 (20161225.0304)
 -->
<!-- Title: content_authors Pages: 1 -->
<svg width="370pt" height="465pt"
 viewBox="0.00 0.00 370.00 465.00" xmlns="http://www.w3.org/2000/svg" xmlns:xlink="http://www.w3.org/1999/xlink">
<g id="graph0" class="graph" transform="scale(1 1) rotate(0) translate(4 461)">
<title>content_authors</title>
<polygon fill="#ffffff" stroke="transparent" points="-4,4 -4,-461 366,-461 366,4 -4,4"/>
<!-- content_authors -->
<g id="node1" class="node">
<title>content_authors</title>
<polygon fill="#efefef" stroke="transparent" points="46,-375.5 46,-410.5 316,-410.5 316,-375.5 46,-375.5"/>
<polygon fill="none" stroke="#000000" points="46,-375.5 46,-410.5 316,-410.5 316,-375.5 46,-375.5"/>
<text text-anchor="start" x="52.6887" y="-388.3" font-family="Arial Bold" font-size="18.00" fill="#000000">content_authors</text>
<text text-anchor="start" x="181.7433" y="-388.3" font-family="Arial" font-size="14.00" fill="#000000">    </text>
<text text-anchor="start" x="215.9481" y="-388.3" font-family="Arial" font-size="14.00" fill="#666666">[BASE TABLE]</text>
<polygon fill="none" stroke="#000000" points="46,-345.5 46,-375.5 316,-375.5 316,-345.5 46,-345.5"/>
<text text-anchor="start" x="53" y="-356.9" font-family="Arial" font-size="14.00" fill="#000000">id </text>
<text text-anchor="start" x="67.7798" y="-356.9" font-family="Arial" font-size="14.00" fill="#666666">[int]</text>
<polygon fill="none" stroke="#000000" points="46,-315.5 46,-345.5 316,-345.5 316,-315.5 46,-315.5"/>
<text text-anchor="start" x="53" y="-326.9" font-family="Arial" font-size="14.00" fill="#000000">name </text>
<text text-anchor="start" x="91.899" y="-326.9" font-family="Arial" font-size="14.00" fill="#666666">[varchar(100)]</text>
<polygon fill="none" stroke="#000000" points="46,-285.5 46,-315.5 316,-315.5 316,-285.5 46,-285.5"/>
<text text-anchor="start" x="53" y="-296.9" font-family="Arial" font-size="14.00" fill="#000000">department </text>
<text text-anchor="start" x="127.6886" y="-296.9" font-family="Arial" font-size="14.00" fill="#666666">[varchar(100)]</text>
<polygon fill="none" stroke="#000000" points="46,-255.5 46,-285.5 316,-285.5 316,-255.5 46,-255.5"/>
<text text-anchor="start" x="53" y="-266.9" font-family="Arial" font-size="14.00" fill="#000000">description </text>
<text text-anchor="start" x="124.568" y="-266.9" font-family="Arial" font-size="14.00" fill="#666666">[text]</text>
<polygon fill="none" stroke="#000000" points="46,-225.5 46,-255.5 316,-255.5 316,-225.5 46,-225.5"/>
<text text-anchor="start" x="53" y="-236.9" font-family="Arial" font-size="14.00" fill="#000000">avatar </text>
<text text-anchor="start" x="95.7896" y="-236.9" font-family="Arial" font-size="14.00" fill="#666666">[varchar(100)]</text>
<polygon fill="none" stroke="#000000" points="46,-195.5 46,-225.5 316,-225.5 316,-195.5 46,-195.5"/>
<text text-anchor="start" x="53" y="-206.9" font-family="Arial" font-size="14.00" fill="#000000">facebook_account </text>
<text text-anchor="start" x="170.4978" y="-206.9" font-family="Arial" font-size="14.00" fill="#666666">[char(100)]</text>
<polygon fill="none" stroke="#000000" points="46,-165.5 46,-195.5 316,-195.5 316,-165.5 46,-165.5"/>
<text text-anchor="start" x="53" y="-176.9" font-family="Arial" font-size="14.00" fill="#000000">twitter_account </text>
<text text-anchor="start" x="151.0224" y="-176.9" font-family="Arial" font-size="14.00" fill="#666666">[char(100)]</text>
<polygon fill="none" stroke="#000000" points="46,-135.5 46,-165.5 316,-165.5 316,-135.5 46,-135.5"/>
<text text-anchor="start" x="53" y="-146.9" font-family="Arial" font-size="14.00" fill="#000000">instagram_account </text>
<text text-anchor="start" x="175.143" y="-146.9" font-family="Arial" font-size="14.00" fill="#666666">[char(100)]</text>
<polygon fill="none" stroke="#000000" points="46,-105.5 46,-135.5 316,-135.5 316,-105.5 46,-105.5"/>
<text text-anchor="start" x="53" y="-116.9" font-family="Arial" font-size="14.00" fill="#000000">line_account </text>
<text text-anchor="start" x="135.4726" y="-116.9" font-family="Arial" font-size="14.00" fill="#666666">[char(100)]</text>
<polygon fill="none" stroke="#000000" points="46,-75.5 46,-105.5 316,-105.5 316,-75.5 46,-75.5"/>
<text text-anchor="start" x="53" y="-86.9" font-family="Arial" font-size="14.00" fill="#000000">created_at </text>
<text text-anchor="start" x="123.028" y="-86.9" font-family="Arial" font-size="14.00" fill="#666666">[datetime]</text>
<polygon fill="none" stroke="#000000" points="46,-45.5 46,-75.5 316,-75.5 316,-45.5 46,-45.5"/>
<text text-anchor="start" x="53" y="-56.9" font-family="Arial" font-size="14.00" fill="#000000">updated_at </text>
<text text-anchor="start" x="126.9326" y="-56.9" font-family="Arial" font-size="14.00" fill="#666666">[datetime]</text>
<polygon fill="none" stroke="#000000" stroke-width="3" points="44.5,-44.5 44.5,-412.5 317.5,-412.5 317.5,-44.5 44.5,-44.5"/>
</g>
</g>
</svg>
