<?xml version="1.0" encoding="UTF-8" standalone="no"?>
<!DOCTYPE svg PUBLIC "-//W3C//DTD SVG 1.1//EN"
 "http://www.w3.org/Graphics/SVG/1.1/DTD/svg11.dtd">
<!-- Generated by graphviz version 2.40.1 (20161225.0304)
 -->
<!-- Title: partners Pages: 1 -->
<svg width="316pt" height="675pt"
 viewBox="0.00 0.00 316.00 675.00" xmlns="http://www.w3.org/2000/svg" xmlns:xlink="http://www.w3.org/1999/xlink">
<g id="graph0" class="graph" transform="scale(1 1) rotate(0) translate(4 671)">
<title>partners</title>
<polygon fill="#ffffff" stroke="transparent" points="-4,4 -4,-671 312,-671 312,4 -4,4"/>
<!-- partners -->
<g id="node1" class="node">
<title>partners</title>
<polygon fill="#efefef" stroke="transparent" points="46,-585.5 46,-620.5 262,-620.5 262,-585.5 46,-585.5"/>
<polygon fill="none" stroke="#000000" points="46,-585.5 46,-620.5 262,-620.5 262,-585.5 46,-585.5"/>
<text text-anchor="start" x="57.2103" y="-598.3" font-family="Arial Bold" font-size="18.00" fill="#000000">partners</text>
<text text-anchor="start" x="123.2217" y="-598.3" font-family="Arial" font-size="14.00" fill="#000000">    </text>
<text text-anchor="start" x="157.4265" y="-598.3" font-family="Arial" font-size="14.00" fill="#666666">[BASE TABLE]</text>
<polygon fill="none" stroke="#000000" points="46,-555.5 46,-585.5 262,-585.5 262,-555.5 46,-555.5"/>
<text text-anchor="start" x="53" y="-566.9" font-family="Arial" font-size="14.00" fill="#000000">id </text>
<text text-anchor="start" x="67.7798" y="-566.9" font-family="Arial" font-size="14.00" fill="#666666">[int]</text>
<polygon fill="none" stroke="#000000" points="46,-525.5 46,-555.5 262,-555.5 262,-525.5 46,-525.5"/>
<text text-anchor="start" x="53" y="-536.9" font-family="Arial" font-size="14.00" fill="#000000">status </text>
<text text-anchor="start" x="94.237" y="-536.9" font-family="Arial" font-size="14.00" fill="#666666">[tinyint]</text>
<polygon fill="none" stroke="#000000" points="46,-495.5 46,-525.5 262,-525.5 262,-495.5 46,-495.5"/>
<text text-anchor="start" x="53" y="-506.9" font-family="Arial" font-size="14.00" fill="#000000">name </text>
<text text-anchor="start" x="91.899" y="-506.9" font-family="Arial" font-size="14.00" fill="#666666">[varchar(100)]</text>
<polygon fill="none" stroke="#000000" points="46,-465.5 46,-495.5 262,-495.5 262,-465.5 46,-465.5"/>
<text text-anchor="start" x="53" y="-476.9" font-family="Arial" font-size="14.00" fill="#000000">yomigana </text>
<text text-anchor="start" x="117.5708" y="-476.9" font-family="Arial" font-size="14.00" fill="#666666">[varchar(100)]</text>
<polygon fill="none" stroke="#000000" points="46,-435.5 46,-465.5 262,-465.5 262,-435.5 46,-435.5"/>
<text text-anchor="start" x="53" y="-446.9" font-family="Arial" font-size="14.00" fill="#000000">email </text>
<text text-anchor="start" x="90.3296" y="-446.9" font-family="Arial" font-size="14.00" fill="#666666">[varchar(100)]</text>
<polygon fill="none" stroke="#000000" points="46,-405.5 46,-435.5 262,-435.5 262,-405.5 46,-405.5"/>
<text text-anchor="start" x="53" y="-416.9" font-family="Arial" font-size="14.00" fill="#000000">zip_code </text>
<text text-anchor="start" x="112.9102" y="-416.9" font-family="Arial" font-size="14.00" fill="#666666">[varchar(20)]</text>
<polygon fill="none" stroke="#000000" points="46,-375.5 46,-405.5 262,-405.5 262,-375.5 46,-375.5"/>
<text text-anchor="start" x="53" y="-386.9" font-family="Arial" font-size="14.00" fill="#000000">address </text>
<text text-anchor="start" x="106.6816" y="-386.9" font-family="Arial" font-size="14.00" fill="#666666">[varchar(255)]</text>
<polygon fill="none" stroke="#000000" points="46,-345.5 46,-375.5 262,-375.5 262,-345.5 46,-345.5"/>
<text text-anchor="start" x="53" y="-356.9" font-family="Arial" font-size="14.00" fill="#000000">contact_name </text>
<text text-anchor="start" x="144.8106" y="-356.9" font-family="Arial" font-size="14.00" fill="#666666">[varchar(100)]</text>
<polygon fill="none" stroke="#000000" points="46,-315.5 46,-345.5 262,-345.5 262,-315.5 46,-315.5"/>
<text text-anchor="start" x="53" y="-326.9" font-family="Arial" font-size="14.00" fill="#000000">phone_number </text>
<text text-anchor="start" x="151.0378" y="-326.9" font-family="Arial" font-size="14.00" fill="#666666">[varchar(20)]</text>
<polygon fill="none" stroke="#000000" points="46,-285.5 46,-315.5 262,-315.5 262,-285.5 46,-285.5"/>
<text text-anchor="start" x="53" y="-296.9" font-family="Arial" font-size="14.00" fill="#000000">classification </text>
<text text-anchor="start" x="136.2286" y="-296.9" font-family="Arial" font-size="14.00" fill="#666666">[varchar(100)]</text>
<polygon fill="none" stroke="#000000" points="46,-255.5 46,-285.5 262,-285.5 262,-255.5 46,-255.5"/>
<text text-anchor="start" x="53" y="-266.9" font-family="Arial" font-size="14.00" fill="#000000">category_id </text>
<text text-anchor="start" x="129.244" y="-266.9" font-family="Arial" font-size="14.00" fill="#666666">[tinyint]</text>
<polygon fill="none" stroke="#000000" points="46,-225.5 46,-255.5 262,-255.5 262,-225.5 46,-225.5"/>
<text text-anchor="start" x="52.8752" y="-236.9" font-family="Arial" font-size="14.00" fill="#000000">customer_ranking </text>
<text text-anchor="start" x="168.0056" y="-236.9" font-family="Arial" font-size="14.00" fill="#666666">[varchar(100)]</text>
<polygon fill="none" stroke="#000000" points="46,-195.5 46,-225.5 262,-225.5 262,-195.5 46,-195.5"/>
<text text-anchor="start" x="53" y="-206.9" font-family="Arial" font-size="14.00" fill="#000000">url </text>
<text text-anchor="start" x="72.4404" y="-206.9" font-family="Arial" font-size="14.00" fill="#666666">[varchar(255)]</text>
<polygon fill="none" stroke="#000000" points="46,-165.5 46,-195.5 262,-195.5 262,-165.5 46,-165.5"/>
<text text-anchor="start" x="53" y="-176.9" font-family="Arial" font-size="14.00" fill="#000000">remarks </text>
<text text-anchor="start" x="107.4376" y="-176.9" font-family="Arial" font-size="14.00" fill="#666666">[text]</text>
<polygon fill="none" stroke="#000000" points="46,-135.5 46,-165.5 262,-165.5 262,-135.5 46,-135.5"/>
<text text-anchor="start" x="53" y="-146.9" font-family="Arial" font-size="14.00" fill="#000000">import_excel </text>
<text text-anchor="start" x="136.2286" y="-146.9" font-family="Arial" font-size="14.00" fill="#666666">[int]</text>
<polygon fill="none" stroke="#000000" points="46,-105.5 46,-135.5 262,-135.5 262,-105.5 46,-105.5"/>
<text text-anchor="start" x="53" y="-116.9" font-family="Arial" font-size="14.00" fill="#000000">created_at </text>
<text text-anchor="start" x="123.028" y="-116.9" font-family="Arial" font-size="14.00" fill="#666666">[datetime]</text>
<polygon fill="none" stroke="#000000" points="46,-75.5 46,-105.5 262,-105.5 262,-75.5 46,-75.5"/>
<text text-anchor="start" x="53" y="-86.9" font-family="Arial" font-size="14.00" fill="#000000">updated_at </text>
<text text-anchor="start" x="126.9326" y="-86.9" font-family="Arial" font-size="14.00" fill="#666666">[datetime]</text>
<polygon fill="none" stroke="#000000" points="46,-45.5 46,-75.5 262,-75.5 262,-45.5 46,-45.5"/>
<text text-anchor="start" x="53" y="-56.9" font-family="Arial" font-size="14.00" fill="#000000">active_token </text>
<text text-anchor="start" x="135.474" y="-56.9" font-family="Arial" font-size="14.00" fill="#666666">[text]</text>
<polygon fill="none" stroke="#000000" stroke-width="3" points="44.5,-44.5 44.5,-622.5 263.5,-622.5 263.5,-44.5 44.5,-44.5"/>
</g>
</g>
</svg>
