<?xml version="1.0" encoding="UTF-8" standalone="no"?>
<!DOCTYPE svg PUBLIC "-//W3C//DTD SVG 1.1//EN"
 "http://www.w3.org/Graphics/SVG/1.1/DTD/svg11.dtd">
<!-- Generated by graphviz version 2.40.1 (20161225.0304)
 -->
<!-- Title: pickup Pages: 1 -->
<svg width="293pt" height="285pt"
 viewBox="0.00 0.00 293.00 285.00" xmlns="http://www.w3.org/2000/svg" xmlns:xlink="http://www.w3.org/1999/xlink">
<g id="graph0" class="graph" transform="scale(1 1) rotate(0) translate(4 281)">
<title>pickup</title>
<polygon fill="#ffffff" stroke="transparent" points="-4,4 -4,-281 289,-281 289,4 -4,4"/>
<!-- pickup -->
<g id="node1" class="node">
<title>pickup</title>
<polygon fill="#efefef" stroke="transparent" points="46.5,-195.5 46.5,-230.5 239.5,-230.5 239.5,-195.5 46.5,-195.5"/>
<polygon fill="none" stroke="#000000" points="46.5,-195.5 46.5,-230.5 239.5,-230.5 239.5,-195.5 46.5,-195.5"/>
<text text-anchor="start" x="53.2096" y="-208.3" font-family="Arial Bold" font-size="18.00" fill="#000000">pickup</text>
<text text-anchor="start" x="105.2224" y="-208.3" font-family="Arial" font-size="14.00" fill="#000000">    </text>
<text text-anchor="start" x="139.4272" y="-208.3" font-family="Arial" font-size="14.00" fill="#666666">[BASE TABLE]</text>
<polygon fill="none" stroke="#000000" points="46.5,-165.5 46.5,-195.5 239.5,-195.5 239.5,-165.5 46.5,-165.5"/>
<text text-anchor="start" x="53.5" y="-176.9" font-family="Arial" font-size="14.00" fill="#000000">id </text>
<text text-anchor="start" x="68.2798" y="-176.9" font-family="Arial" font-size="14.00" fill="#666666">[int]</text>
<polygon fill="none" stroke="#000000" points="46.5,-135.5 46.5,-165.5 239.5,-165.5 239.5,-135.5 46.5,-135.5"/>
<text text-anchor="start" x="53.5" y="-146.9" font-family="Arial" font-size="14.00" fill="#000000">relationship_id </text>
<text text-anchor="start" x="147.629" y="-146.9" font-family="Arial" font-size="14.00" fill="#666666">[int]</text>
<polygon fill="none" stroke="#000000" points="46.5,-105.5 46.5,-135.5 239.5,-135.5 239.5,-105.5 46.5,-105.5"/>
<text text-anchor="start" x="53.5" y="-116.9" font-family="Arial" font-size="14.00" fill="#000000">type </text>
<text text-anchor="start" x="83.8464" y="-116.9" font-family="Arial" font-size="14.00" fill="#666666">[tinyint]</text>
<polygon fill="none" stroke="#000000" points="46.5,-75.5 46.5,-105.5 239.5,-105.5 239.5,-75.5 46.5,-75.5"/>
<text text-anchor="start" x="53.5" y="-86.9" font-family="Arial" font-size="14.00" fill="#000000">date_start </text>
<text text-anchor="start" x="119.636" y="-86.9" font-family="Arial" font-size="14.00" fill="#666666">[datetime]</text>
<polygon fill="none" stroke="#000000" points="46.5,-45.5 46.5,-75.5 239.5,-75.5 239.5,-45.5 46.5,-45.5"/>
<text text-anchor="start" x="53.5" y="-56.9" font-family="Arial" font-size="14.00" fill="#000000">date_end </text>
<text text-anchor="start" x="115.7594" y="-56.9" font-family="Arial" font-size="14.00" fill="#666666">[datetime]</text>
<polygon fill="none" stroke="#000000" stroke-width="3" points="44.5,-44.5 44.5,-232.5 240.5,-232.5 240.5,-44.5 44.5,-44.5"/>
</g>
</g>
</svg>
