<?xml version="1.0" encoding="UTF-8" standalone="no"?>
<!DOCTYPE svg PUBLIC "-//W3C//DTD SVG 1.1//EN"
 "http://www.w3.org/Graphics/SVG/1.1/DTD/svg11.dtd">
<!-- Generated by graphviz version 2.40.1 (20161225.0304)
 -->
<!-- Title: sent_emails Pages: 1 -->
<svg width="680pt" height="892pt"
 viewBox="0.00 0.00 680.00 892.00" xmlns="http://www.w3.org/2000/svg" xmlns:xlink="http://www.w3.org/1999/xlink">
<g id="graph0" class="graph" transform="scale(1 1) rotate(0) translate(4 888)">
<title>sent_emails</title>
<polygon fill="#ffffff" stroke="transparent" points="-4,4 -4,-888 676,-888 676,4 -4,4"/>
<!-- sent_emails -->
<g id="node1" class="node">
<title>sent_emails</title>
<polygon fill="#efefef" stroke="transparent" points="344,-435.5 344,-470.5 581,-470.5 581,-435.5 344,-435.5"/>
<polygon fill="none" stroke="#000000" points="344,-435.5 344,-470.5 581,-470.5 581,-435.5 344,-435.5"/>
<text text-anchor="start" x="350.7091" y="-448.3" font-family="Arial Bold" font-size="18.00" fill="#000000">sent_emails</text>
<text text-anchor="start" x="446.7229" y="-448.3" font-family="Arial" font-size="14.00" fill="#000000">    </text>
<text text-anchor="start" x="480.9277" y="-448.3" font-family="Arial" font-size="14.00" fill="#666666">[BASE TABLE]</text>
<polygon fill="none" stroke="#000000" points="344,-405.5 344,-435.5 581,-435.5 581,-405.5 344,-405.5"/>
<text text-anchor="start" x="351" y="-416.9" font-family="Arial" font-size="14.00" fill="#000000">id </text>
<text text-anchor="start" x="365.7798" y="-416.9" font-family="Arial" font-size="14.00" fill="#666666">[int unsigned]</text>
<polygon fill="none" stroke="#000000" points="344,-375.5 344,-405.5 581,-405.5 581,-375.5 344,-375.5"/>
<text text-anchor="start" x="351" y="-386.9" font-family="Arial" font-size="14.00" fill="#000000">hash </text>
<text text-anchor="start" x="385.2384" y="-386.9" font-family="Arial" font-size="14.00" fill="#666666">[char(32)]</text>
<polygon fill="none" stroke="#000000" points="344,-345.5 344,-375.5 581,-375.5 581,-345.5 344,-345.5"/>
<text text-anchor="start" x="351" y="-356.9" font-family="Arial" font-size="14.00" fill="#000000">headers </text>
<text text-anchor="start" x="405.4642" y="-356.9" font-family="Arial" font-size="14.00" fill="#666666">[text]</text>
<polygon fill="none" stroke="#000000" points="344,-315.5 344,-345.5 581,-345.5 581,-315.5 344,-315.5"/>
<text text-anchor="start" x="351" y="-326.9" font-family="Arial" font-size="14.00" fill="#000000">sender </text>
<text text-anchor="start" x="397.6816" y="-326.9" font-family="Arial" font-size="14.00" fill="#666666">[varchar(255)]</text>
<polygon fill="none" stroke="#000000" points="344,-285.5 344,-315.5 581,-315.5 581,-285.5 344,-285.5"/>
<text text-anchor="start" x="351" y="-296.9" font-family="Arial" font-size="14.00" fill="#000000">recipient </text>
<text text-anchor="start" x="407.7854" y="-296.9" font-family="Arial" font-size="14.00" fill="#666666">[varchar(255)]</text>
<polygon fill="none" stroke="#000000" points="344,-255.5 344,-285.5 581,-285.5 581,-255.5 344,-255.5"/>
<text text-anchor="start" x="351" y="-266.9" font-family="Arial" font-size="14.00" fill="#000000">subject </text>
<text text-anchor="start" x="399.2356" y="-266.9" font-family="Arial" font-size="14.00" fill="#666666">[varchar(255)]</text>
<polygon fill="none" stroke="#000000" points="344,-225.5 344,-255.5 581,-255.5 581,-225.5 344,-225.5"/>
<text text-anchor="start" x="351" y="-236.9" font-family="Arial" font-size="14.00" fill="#000000">content </text>
<text text-anchor="start" x="400.8022" y="-236.9" font-family="Arial" font-size="14.00" fill="#666666">[text]</text>
<polygon fill="none" stroke="#000000" points="344,-195.5 344,-225.5 581,-225.5 581,-195.5 344,-195.5"/>
<text text-anchor="start" x="351" y="-206.9" font-family="Arial" font-size="14.00" fill="#000000">opens </text>
<text text-anchor="start" x="393.021" y="-206.9" font-family="Arial" font-size="14.00" fill="#666666">[int]</text>
<polygon fill="none" stroke="#000000" points="344,-165.5 344,-195.5 581,-195.5 581,-165.5 344,-165.5"/>
<text text-anchor="start" x="351" y="-176.9" font-family="Arial" font-size="14.00" fill="#000000">clicks </text>
<text text-anchor="start" x="389.1038" y="-176.9" font-family="Arial" font-size="14.00" fill="#666666">[int]</text>
<polygon fill="none" stroke="#000000" points="344,-135.5 344,-165.5 581,-165.5 581,-135.5 344,-135.5"/>
<text text-anchor="start" x="351" y="-146.9" font-family="Arial" font-size="14.00" fill="#000000">created_at </text>
<text text-anchor="start" x="421.028" y="-146.9" font-family="Arial" font-size="14.00" fill="#666666">[timestamp]</text>
<polygon fill="none" stroke="#000000" points="344,-105.5 344,-135.5 581,-135.5 581,-105.5 344,-105.5"/>
<text text-anchor="start" x="351" y="-116.9" font-family="Arial" font-size="14.00" fill="#000000">updated_at </text>
<text text-anchor="start" x="424.9326" y="-116.9" font-family="Arial" font-size="14.00" fill="#666666">[timestamp]</text>
<polygon fill="none" stroke="#000000" points="344,-75.5 344,-105.5 581,-105.5 581,-75.5 344,-75.5"/>
<text text-anchor="start" x="351" y="-86.9" font-family="Arial" font-size="14.00" fill="#000000">message_id </text>
<text text-anchor="start" x="430.3534" y="-86.9" font-family="Arial" font-size="14.00" fill="#666666">[varchar(255)]</text>
<polygon fill="none" stroke="#000000" points="344,-45.5 344,-75.5 581,-75.5 581,-45.5 344,-45.5"/>
<text text-anchor="start" x="351" y="-56.9" font-family="Arial" font-size="14.00" fill="#000000">meta </text>
<text text-anchor="start" x="386.007" y="-56.9" font-family="Arial" font-size="14.00" fill="#666666">[text]</text>
<polygon fill="none" stroke="#000000" stroke-width="3" points="342,-44.5 342,-472.5 582,-472.5 582,-44.5 342,-44.5"/>
</g>
<!-- sent_emails_url_clicked -->
<g id="node2" class="node">
<title>sent_emails_url_clicked</title>
<polygon fill="#efefef" stroke="transparent" points="297,-805.5 297,-840.5 629,-840.5 629,-805.5 297,-805.5"/>
<polygon fill="none" stroke="#000000" points="297,-805.5 297,-840.5 629,-840.5 629,-805.5 297,-805.5"/>
<text text-anchor="start" x="303.7062" y="-818.3" font-family="Arial Bold" font-size="18.00" fill="#000000">sent_emails_url_clicked</text>
<text text-anchor="start" x="494.7258" y="-818.3" font-family="Arial" font-size="14.00" fill="#000000">    </text>
<text text-anchor="start" x="528.9306" y="-818.3" font-family="Arial" font-size="14.00" fill="#666666">[BASE TABLE]</text>
<polygon fill="none" stroke="#000000" points="297,-775.5 297,-805.5 629,-805.5 629,-775.5 297,-775.5"/>
<text text-anchor="start" x="304" y="-786.9" font-family="Arial" font-size="14.00" fill="#000000">id    </text>
<text text-anchor="start" x="349.094" y="-786.9" font-family="Arial" font-size="14.00" fill="#666666">[int unsigned]</text>
<polygon fill="none" stroke="#000000" points="297,-745.5 297,-775.5 629,-775.5 629,-745.5 297,-745.5"/>
<text text-anchor="start" x="304" y="-756.9" font-family="Arial" font-size="14.00" fill="#000000">sent_email_id    </text>
<text text-anchor="start" x="424.554" y="-756.9" font-family="Arial" font-size="14.00" fill="#666666">[int unsigned]</text>
<polygon fill="none" stroke="#000000" points="297,-715.5 297,-745.5 629,-745.5 629,-715.5 297,-715.5"/>
<text text-anchor="start" x="304" y="-726.9" font-family="Arial" font-size="14.00" fill="#000000">url    </text>
<text text-anchor="start" x="353.7546" y="-726.9" font-family="Arial" font-size="14.00" fill="#666666">[text]</text>
<polygon fill="none" stroke="#000000" points="297,-685.5 297,-715.5 629,-715.5 629,-685.5 297,-685.5"/>
<text text-anchor="start" x="304" y="-696.9" font-family="Arial" font-size="14.00" fill="#000000">hash    </text>
<text text-anchor="start" x="368.5526" y="-696.9" font-family="Arial" font-size="14.00" fill="#666666">[char(32)]</text>
<polygon fill="none" stroke="#000000" points="297,-655.5 297,-685.5 629,-685.5 629,-655.5 297,-655.5"/>
<text text-anchor="start" x="304" y="-666.9" font-family="Arial" font-size="14.00" fill="#000000">clicks    </text>
<text text-anchor="start" x="372.418" y="-666.9" font-family="Arial" font-size="14.00" fill="#666666">[int]</text>
<polygon fill="none" stroke="#000000" points="297,-625.5 297,-655.5 629,-655.5 629,-625.5 297,-625.5"/>
<text text-anchor="start" x="304" y="-636.9" font-family="Arial" font-size="14.00" fill="#000000">created_at    </text>
<text text-anchor="start" x="404.3422" y="-636.9" font-family="Arial" font-size="14.00" fill="#666666">[timestamp]</text>
<polygon fill="none" stroke="#000000" points="297,-595.5 297,-625.5 629,-625.5 629,-595.5 297,-595.5"/>
<text text-anchor="start" x="304" y="-606.9" font-family="Arial" font-size="14.00" fill="#000000">updated_at    </text>
<text text-anchor="start" x="408.2468" y="-606.9" font-family="Arial" font-size="14.00" fill="#666666">[timestamp]</text>
</g>
<!-- sent_emails_url_clicked&#45;&gt;sent_emails -->
<g id="edge1" class="edge">
<title>sent_emails_url_clicked:sent_email_id&#45;&gt;sent_emails:id</title>
<path fill="none" stroke="#000000" d="M286.7523,-759.8792C207.2645,-749.8 238.4088,-619.4871 297,-553 381.12,-457.5438 496.88,-612.4562 581,-517 609.3561,-484.8226 623.8889,-420.5 581,-420.5"/>
<polygon fill="#000000" stroke="#000000" points="287.0183,-759.8953 296.7279,-764.9918 292.0091,-760.1976 297,-760.5 297,-760.5 297,-760.5 292.0091,-760.1976 297.2721,-756.0082 287.0183,-759.8953 287.0183,-759.8953"/>
<text text-anchor="start" x="7.051" y="-770.5" font-family="Arial" font-size="10.00" fill="#000000">FOREIGN KEY (sent_email_id) REFERENCES sent_emails (id)</text>
</g>
</g>
</svg>
