<?xml version="1.0" encoding="UTF-8" standalone="no"?>
<!DOCTYPE svg PUBLIC "-//W3C//DTD SVG 1.1//EN"
 "http://www.w3.org/Graphics/SVG/1.1/DTD/svg11.dtd">
<!-- Generated by graphviz version 2.40.1 (20161225.0304)
 -->
<!-- Title: sent_emails_url_clicked Pages: 1 -->
<svg width="683pt" height="892pt"
 viewBox="0.00 0.00 683.00 892.00" xmlns="http://www.w3.org/2000/svg" xmlns:xlink="http://www.w3.org/1999/xlink">
<g id="graph0" class="graph" transform="scale(1 1) rotate(0) translate(4 888)">
<title>sent_emails_url_clicked</title>
<polygon fill="#ffffff" stroke="transparent" points="-4,4 -4,-888 679,-888 679,4 -4,4"/>
<!-- sent_emails_url_clicked -->
<g id="node1" class="node">
<title>sent_emails_url_clicked</title>
<polygon fill="#efefef" stroke="transparent" points="297,-802.5 297,-837.5 629,-837.5 629,-802.5 297,-802.5"/>
<polygon fill="none" stroke="#000000" points="297,-802.5 297,-837.5 629,-837.5 629,-802.5 297,-802.5"/>
<text text-anchor="start" x="303.7062" y="-815.3" font-family="Arial Bold" font-size="18.00" fill="#000000">sent_emails_url_clicked</text>
<text text-anchor="start" x="494.7258" y="-815.3" font-family="Arial" font-size="14.00" fill="#000000">    </text>
<text text-anchor="start" x="528.9306" y="-815.3" font-family="Arial" font-size="14.00" fill="#666666">[BASE TABLE]</text>
<polygon fill="none" stroke="#000000" points="297,-772.5 297,-802.5 629,-802.5 629,-772.5 297,-772.5"/>
<text text-anchor="start" x="304" y="-783.9" font-family="Arial" font-size="14.00" fill="#000000">id </text>
<text text-anchor="start" x="318.7798" y="-783.9" font-family="Arial" font-size="14.00" fill="#666666">[int unsigned]</text>
<polygon fill="none" stroke="#000000" points="297,-742.5 297,-772.5 629,-772.5 629,-742.5 297,-742.5"/>
<text text-anchor="start" x="304" y="-753.9" font-family="Arial" font-size="14.00" fill="#000000">sent_email_id </text>
<text text-anchor="start" x="394.2398" y="-753.9" font-family="Arial" font-size="14.00" fill="#666666">[int unsigned]</text>
<polygon fill="none" stroke="#000000" points="297,-712.5 297,-742.5 629,-742.5 629,-712.5 297,-712.5"/>
<text text-anchor="start" x="304" y="-723.9" font-family="Arial" font-size="14.00" fill="#000000">url </text>
<text text-anchor="start" x="323.4404" y="-723.9" font-family="Arial" font-size="14.00" fill="#666666">[text]</text>
<polygon fill="none" stroke="#000000" points="297,-682.5 297,-712.5 629,-712.5 629,-682.5 297,-682.5"/>
<text text-anchor="start" x="304" y="-693.9" font-family="Arial" font-size="14.00" fill="#000000">hash </text>
<text text-anchor="start" x="338.2384" y="-693.9" font-family="Arial" font-size="14.00" fill="#666666">[char(32)]</text>
<polygon fill="none" stroke="#000000" points="297,-652.5 297,-682.5 629,-682.5 629,-652.5 297,-652.5"/>
<text text-anchor="start" x="304" y="-663.9" font-family="Arial" font-size="14.00" fill="#000000">clicks </text>
<text text-anchor="start" x="342.1038" y="-663.9" font-family="Arial" font-size="14.00" fill="#666666">[int]</text>
<polygon fill="none" stroke="#000000" points="297,-622.5 297,-652.5 629,-652.5 629,-622.5 297,-622.5"/>
<text text-anchor="start" x="304" y="-633.9" font-family="Arial" font-size="14.00" fill="#000000">created_at </text>
<text text-anchor="start" x="374.028" y="-633.9" font-family="Arial" font-size="14.00" fill="#666666">[timestamp]</text>
<polygon fill="none" stroke="#000000" points="297,-592.5 297,-622.5 629,-622.5 629,-592.5 297,-592.5"/>
<text text-anchor="start" x="304" y="-603.9" font-family="Arial" font-size="14.00" fill="#000000">updated_at </text>
<text text-anchor="start" x="377.9326" y="-603.9" font-family="Arial" font-size="14.00" fill="#666666">[timestamp]</text>
<polygon fill="none" stroke="#000000" stroke-width="3" points="295.5,-591.5 295.5,-839.5 630.5,-839.5 630.5,-591.5 295.5,-591.5"/>
</g>
<!-- sent_emails -->
<g id="node2" class="node">
<title>sent_emails</title>
<polygon fill="#efefef" stroke="transparent" points="344,-432.5 344,-467.5 581,-467.5 581,-432.5 344,-432.5"/>
<polygon fill="none" stroke="#000000" points="344,-432.5 344,-467.5 581,-467.5 581,-432.5 344,-432.5"/>
<text text-anchor="start" x="350.7091" y="-445.3" font-family="Arial Bold" font-size="18.00" fill="#000000">sent_emails</text>
<text text-anchor="start" x="446.7229" y="-445.3" font-family="Arial" font-size="14.00" fill="#000000">    </text>
<text text-anchor="start" x="480.9277" y="-445.3" font-family="Arial" font-size="14.00" fill="#666666">[BASE TABLE]</text>
<polygon fill="none" stroke="#000000" points="344,-402.5 344,-432.5 581,-432.5 581,-402.5 344,-402.5"/>
<text text-anchor="start" x="351" y="-413.9" font-family="Arial" font-size="14.00" fill="#000000">id    </text>
<text text-anchor="start" x="396.094" y="-413.9" font-family="Arial" font-size="14.00" fill="#666666">[int unsigned]</text>
<polygon fill="none" stroke="#000000" points="344,-372.5 344,-402.5 581,-402.5 581,-372.5 344,-372.5"/>
<text text-anchor="start" x="351" y="-383.9" font-family="Arial" font-size="14.00" fill="#000000">hash    </text>
<text text-anchor="start" x="415.5526" y="-383.9" font-family="Arial" font-size="14.00" fill="#666666">[char(32)]</text>
<polygon fill="none" stroke="#000000" points="344,-342.5 344,-372.5 581,-372.5 581,-342.5 344,-342.5"/>
<text text-anchor="start" x="351" y="-353.9" font-family="Arial" font-size="14.00" fill="#000000">headers    </text>
<text text-anchor="start" x="435.7784" y="-353.9" font-family="Arial" font-size="14.00" fill="#666666">[text]</text>
<polygon fill="none" stroke="#000000" points="344,-312.5 344,-342.5 581,-342.5 581,-312.5 344,-312.5"/>
<text text-anchor="start" x="351" y="-323.9" font-family="Arial" font-size="14.00" fill="#000000">sender    </text>
<text text-anchor="start" x="427.9958" y="-323.9" font-family="Arial" font-size="14.00" fill="#666666">[varchar(255)]</text>
<polygon fill="none" stroke="#000000" points="344,-282.5 344,-312.5 581,-312.5 581,-282.5 344,-282.5"/>
<text text-anchor="start" x="351" y="-293.9" font-family="Arial" font-size="14.00" fill="#000000">recipient    </text>
<text text-anchor="start" x="438.0996" y="-293.9" font-family="Arial" font-size="14.00" fill="#666666">[varchar(255)]</text>
<polygon fill="none" stroke="#000000" points="344,-252.5 344,-282.5 581,-282.5 581,-252.5 344,-252.5"/>
<text text-anchor="start" x="351" y="-263.9" font-family="Arial" font-size="14.00" fill="#000000">subject    </text>
<text text-anchor="start" x="429.5498" y="-263.9" font-family="Arial" font-size="14.00" fill="#666666">[varchar(255)]</text>
<polygon fill="none" stroke="#000000" points="344,-222.5 344,-252.5 581,-252.5 581,-222.5 344,-222.5"/>
<text text-anchor="start" x="351" y="-233.9" font-family="Arial" font-size="14.00" fill="#000000">content    </text>
<text text-anchor="start" x="431.1164" y="-233.9" font-family="Arial" font-size="14.00" fill="#666666">[text]</text>
<polygon fill="none" stroke="#000000" points="344,-192.5 344,-222.5 581,-222.5 581,-192.5 344,-192.5"/>
<text text-anchor="start" x="351" y="-203.9" font-family="Arial" font-size="14.00" fill="#000000">opens    </text>
<text text-anchor="start" x="423.3352" y="-203.9" font-family="Arial" font-size="14.00" fill="#666666">[int]</text>
<polygon fill="none" stroke="#000000" points="344,-162.5 344,-192.5 581,-192.5 581,-162.5 344,-162.5"/>
<text text-anchor="start" x="351" y="-173.9" font-family="Arial" font-size="14.00" fill="#000000">clicks    </text>
<text text-anchor="start" x="419.418" y="-173.9" font-family="Arial" font-size="14.00" fill="#666666">[int]</text>
<polygon fill="none" stroke="#000000" points="344,-132.5 344,-162.5 581,-162.5 581,-132.5 344,-132.5"/>
<text text-anchor="start" x="351" y="-143.9" font-family="Arial" font-size="14.00" fill="#000000">created_at    </text>
<text text-anchor="start" x="451.3422" y="-143.9" font-family="Arial" font-size="14.00" fill="#666666">[timestamp]</text>
<polygon fill="none" stroke="#000000" points="344,-102.5 344,-132.5 581,-132.5 581,-102.5 344,-102.5"/>
<text text-anchor="start" x="351" y="-113.9" font-family="Arial" font-size="14.00" fill="#000000">updated_at    </text>
<text text-anchor="start" x="455.2468" y="-113.9" font-family="Arial" font-size="14.00" fill="#666666">[timestamp]</text>
<polygon fill="none" stroke="#000000" points="344,-72.5 344,-102.5 581,-102.5 581,-72.5 344,-72.5"/>
<text text-anchor="start" x="351" y="-83.9" font-family="Arial" font-size="14.00" fill="#000000">message_id    </text>
<text text-anchor="start" x="460.6676" y="-83.9" font-family="Arial" font-size="14.00" fill="#666666">[varchar(255)]</text>
<polygon fill="none" stroke="#000000" points="344,-42.5 344,-72.5 581,-72.5 581,-42.5 344,-42.5"/>
<text text-anchor="start" x="351" y="-53.9" font-family="Arial" font-size="14.00" fill="#000000">meta    </text>
<text text-anchor="start" x="416.3212" y="-53.9" font-family="Arial" font-size="14.00" fill="#666666">[text]</text>
</g>
<!-- sent_emails_url_clicked&#45;&gt;sent_emails -->
<g id="edge1" class="edge">
<title>sent_emails_url_clicked:sent_email_id&#45;&gt;sent_emails:id</title>
<path fill="none" stroke="#000000" d="M286.6042,-756.8703C205.9671,-746.6453 237.5617,-614.4484 297,-547 381.12,-451.5438 496.88,-606.4562 581,-511 608.4746,-479.8229 622.5556,-417.5 581,-417.5"/>
<polygon fill="#000000" stroke="#000000" points="287.0183,-756.8953 296.7279,-761.9918 292.0091,-757.1976 297,-757.5 297,-757.5 297,-757.5 292.0091,-757.1976 297.2721,-753.0082 287.0183,-756.8953 287.0183,-756.8953"/>
<text text-anchor="start" x="7.051" y="-767.5" font-family="Arial" font-size="10.00" fill="#000000">FOREIGN KEY (sent_email_id) REFERENCES sent_emails (id)</text>
</g>
</g>
</svg>
