<?xml version="1.0" encoding="UTF-8" standalone="no"?>
<!DOCTYPE svg PUBLIC "-//W3C//DTD SVG 1.1//EN"
 "http://www.w3.org/Graphics/SVG/1.1/DTD/svg11.dtd">
<!-- Generated by graphviz version 2.40.1 (20161225.0304)
 -->
<!-- Title: user_deleted Pages: 1 -->
<svg width="345pt" height="405pt"
 viewBox="0.00 0.00 345.00 405.00" xmlns="http://www.w3.org/2000/svg" xmlns:xlink="http://www.w3.org/1999/xlink">
<g id="graph0" class="graph" transform="scale(1 1) rotate(0) translate(4 401)">
<title>user_deleted</title>
<polygon fill="#ffffff" stroke="transparent" points="-4,4 -4,-401 341,-401 341,4 -4,4"/>
<!-- user_deleted -->
<g id="node1" class="node">
<title>user_deleted</title>
<polygon fill="#efefef" stroke="transparent" points="46.5,-315.5 46.5,-350.5 291.5,-350.5 291.5,-315.5 46.5,-315.5"/>
<polygon fill="none" stroke="#000000" points="46.5,-315.5 46.5,-350.5 291.5,-350.5 291.5,-315.5 46.5,-315.5"/>
<text text-anchor="start" x="53.1969" y="-328.3" font-family="Arial Bold" font-size="18.00" fill="#000000">user_deleted</text>
<text text-anchor="start" x="157.2351" y="-328.3" font-family="Arial" font-size="14.00" fill="#000000">    </text>
<text text-anchor="start" x="191.4399" y="-328.3" font-family="Arial" font-size="14.00" fill="#666666">[BASE TABLE]</text>
<polygon fill="none" stroke="#000000" points="46.5,-285.5 46.5,-315.5 291.5,-315.5 291.5,-285.5 46.5,-285.5"/>
<text text-anchor="start" x="53.5" y="-296.9" font-family="Arial" font-size="14.00" fill="#000000">id </text>
<text text-anchor="start" x="68.2798" y="-296.9" font-family="Arial" font-size="14.00" fill="#666666">[bigint unsigned]</text>
<polygon fill="none" stroke="#000000" points="46.5,-255.5 46.5,-285.5 291.5,-285.5 291.5,-255.5 46.5,-255.5"/>
<text text-anchor="start" x="53.5" y="-266.9" font-family="Arial" font-size="14.00" fill="#000000">user_id </text>
<text text-anchor="start" x="103.2882" y="-266.9" font-family="Arial" font-size="14.00" fill="#666666">[text]</text>
<polygon fill="none" stroke="#000000" points="46.5,-225.5 46.5,-255.5 291.5,-255.5 291.5,-225.5 46.5,-225.5"/>
<text text-anchor="start" x="53.5" y="-236.9" font-family="Arial" font-size="14.00" fill="#000000">reason_leave </text>
<text text-anchor="start" x="141.4186" y="-236.9" font-family="Arial" font-size="14.00" fill="#666666">[text]</text>
<polygon fill="none" stroke="#000000" points="46.5,-195.5 46.5,-225.5 291.5,-225.5 291.5,-195.5 46.5,-195.5"/>
<text text-anchor="start" x="53.5" y="-206.9" font-family="Arial" font-size="14.00" fill="#000000">reason_start </text>
<text text-anchor="start" x="135.1886" y="-206.9" font-family="Arial" font-size="14.00" fill="#666666">[text]</text>
<polygon fill="none" stroke="#000000" points="46.5,-165.5 46.5,-195.5 291.5,-195.5 291.5,-165.5 46.5,-165.5"/>
<text text-anchor="start" x="53.5" y="-176.9" font-family="Arial" font-size="14.00" fill="#000000">reason_deciding </text>
<text text-anchor="start" x="160.0904" y="-176.9" font-family="Arial" font-size="14.00" fill="#666666">[text]</text>
<polygon fill="none" stroke="#000000" points="46.5,-135.5 46.5,-165.5 291.5,-165.5 291.5,-135.5 46.5,-135.5"/>
<text text-anchor="start" x="53.5" y="-146.9" font-family="Arial" font-size="14.00" fill="#000000">other_service </text>
<text text-anchor="start" x="141.4046" y="-146.9" font-family="Arial" font-size="14.00" fill="#666666">[text]</text>
<polygon fill="none" stroke="#000000" points="46.5,-105.5 46.5,-135.5 291.5,-135.5 291.5,-105.5 46.5,-105.5"/>
<text text-anchor="start" x="53.5" y="-116.9" font-family="Arial" font-size="14.00" fill="#000000">other_opinions </text>
<text text-anchor="start" x="149.1984" y="-116.9" font-family="Arial" font-size="14.00" fill="#666666">[text]</text>
<polygon fill="none" stroke="#000000" points="46.5,-75.5 46.5,-105.5 291.5,-105.5 291.5,-75.5 46.5,-75.5"/>
<text text-anchor="start" x="53.5" y="-86.9" font-family="Arial" font-size="14.00" fill="#000000">created_at </text>
<text text-anchor="start" x="123.528" y="-86.9" font-family="Arial" font-size="14.00" fill="#666666">[timestamp]</text>
<polygon fill="none" stroke="#000000" points="46.5,-45.5 46.5,-75.5 291.5,-75.5 291.5,-45.5 46.5,-45.5"/>
<text text-anchor="start" x="53.5" y="-56.9" font-family="Arial" font-size="14.00" fill="#000000">updated_at </text>
<text text-anchor="start" x="127.4326" y="-56.9" font-family="Arial" font-size="14.00" fill="#666666">[timestamp]</text>
<polygon fill="none" stroke="#000000" stroke-width="3" points="44.5,-44.5 44.5,-352.5 292.5,-352.5 292.5,-44.5 44.5,-44.5"/>
</g>
</g>
</svg>
